<?xml version="1.0" encoding="UTF-8" standalone="no"?>
<!DOCTYPE svg PUBLIC "-//W3C//DTD SVG 1.1//EN" "http://www.w3.org/Graphics/SVG/1.1/DTD/svg11.dtd">
<svg width="100%" height="100%" viewBox="0 0 1932 1932" version="1.1" xmlns="http://www.w3.org/2000/svg" xmlns:xlink="http://www.w3.org/1999/xlink" xml:space="preserve" xmlns:serif="http://www.serif.com/" style="fill-rule:evenodd;clip-rule:evenodd;stroke-linejoin:round;stroke-miterlimit:2;">
    <g transform="matrix(1,0,0,1,-6137.45,-8089)">
        <g transform="matrix(0.742435,0,0,0.795026,6428.57,8262.2)">
            <rect x="-203.862" y="-87.223" width="2281.72" height="2130.79" style="fill:white;"/>
        </g>
        <g transform="matrix(4.16667,0,0,4.16667,0,0)">
            <g transform="matrix(1,0,0,1,-14.3617,44.6809)">
                <path d="M1901.68,1964.57L1901.68,2048.81C1901.68,2059.14 1893.31,2067.52 1882.97,2067.52L1882.36,2067.52C1872.03,2067.52 1863.65,2059.14 1863.65,2048.81L1863.65,2011.57L1796.01,2079.21L1746.79,2128.44L1863.65,2245.3L1863.65,2208.06C1863.65,2197.73 1872.03,2189.35 1882.36,2189.35L1882.97,2189.35C1893.31,2189.35 1901.68,2197.73 1901.68,2208.06L1901.68,2292.3C1901.68,2302.64 1893.31,2311.01 1882.97,2311.01L1798.73,2311.01C1788.4,2311.01 1780.02,2302.64 1780.02,2292.3L1780.02,2291.69C1780.02,2281.36 1788.4,2272.98 1798.73,2272.98L1835.97,2272.98L1719.11,2156.12L1654.48,2220.74L1602.24,2272.98L1639.48,2272.98C1649.81,2272.98 1658.19,2281.36 1658.19,2291.69L1658.19,2292.3C1658.19,2302.64 1649.81,2311.01 1639.48,2311.01L1555.24,2311.01C1544.91,2311.01 1536.53,2302.64 1536.53,2292.3L1536.53,2208.06C1536.53,2197.73 1544.91,2189.35 1555.24,2189.35L1555.85,2189.35C1566.18,2189.35 1574.56,2197.73 1574.56,2208.06L1574.56,2245.3L1691.42,2128.44L1636.2,2073.21L1574.56,2011.57L1574.56,2048.81C1574.56,2059.14 1566.18,2067.52 1555.85,2067.52L1555.24,2067.52C1544.91,2067.52 1536.53,2059.14 1536.53,2048.81L1536.53,1964.57C1536.53,1954.23 1544.91,1945.86 1555.24,1945.86L1639.48,1945.86C1649.81,1945.86 1658.19,1954.23 1658.19,1964.57L1658.19,1965.18C1658.19,1975.51 1649.81,1983.89 1639.48,1983.89L1602.24,1983.89L1669.88,2051.53L1719.11,2100.75L1835.97,1983.89L1798.73,1983.89C1788.4,1983.89 1780.02,1975.51 1780.02,1965.18L1780.02,1964.57C1780.02,1954.23 1788.4,1945.86 1798.73,1945.86L1882.97,1945.86C1893.31,1945.86 1901.68,1954.23 1901.68,1964.57ZM1913.34,1896.68L1524.87,1896.68C1504.15,1896.68 1487.35,1913.48 1487.35,1934.2L1487.35,2322.67C1487.35,2343.39 1504.15,2360.19 1524.87,2360.19L1913.34,2360.19C1934.06,2360.19 1950.86,2343.39 1950.86,2322.67L1950.86,1934.2C1950.86,1913.48 1934.06,1896.68 1913.34,1896.68Z" style="fill:rgb(35,31,32);fill-rule:nonzero;"/>
            </g>
        </g>
    </g>
</svg>
